<svg width="38" height="36" viewBox="0 0 38 36" fill="none" xmlns="http://www.w3.org/2000/svg">
<path d="M18.992 35.512C15.3653 35.512 12.1013 34.7653 9.2 33.272C6.34133 31.736 4.10133 29.624 2.48 26.936C0.858667 24.248 0.0480001 21.1973 0.0480001 17.784C0.0480001 14.3707 0.858667 11.32 2.48 8.632C4.10133 5.944 6.34133 3.85333 9.2 2.36C12.1013 0.823999 15.3653 0.0559998 18.992 0.0559998C22.6187 0.0559998 25.8613 0.823999 28.72 2.36C31.5787 3.85333 33.8187 5.944 35.44 8.632C37.0613 11.32 37.872 14.3707 37.872 17.784C37.872 21.1973 37.0613 24.248 35.44 26.936C33.8187 29.624 31.5787 31.736 28.72 33.272C25.8613 34.7653 22.6187 35.512 18.992 35.512ZM18.992 27.32C21.552 27.32 23.6427 26.4667 25.264 24.76C26.928 23.0107 27.76 20.6853 27.76 17.784C27.76 14.8827 26.928 12.5787 25.264 10.872C23.6427 9.12267 21.552 8.248 18.992 8.248C16.432 8.248 14.32 9.12267 12.656 10.872C10.992 12.5787 10.16 14.8827 10.16 17.784C10.16 20.6853 10.992 23.0107 12.656 24.76C14.32 26.4667 16.432 27.32 18.992 27.32Z" fill="#77EFE5"/>
</svg>
